<svg xmlns="http://www.w3.org/2000/svg" width="24" height="24" viewBox="0 0 24 24" fill="none">
    <path d="M20.3814 11.6216C20.4541 11.6943 20.5119 11.7806 20.5513 11.8756C20.5906 11.9706 20.6109 12.0725 20.6109 12.1754C20.6109 12.2782 20.5906 12.3801 20.5513 12.4751C20.5119 12.5701 20.4541 12.6564 20.3814 12.7291L12.3538 20.7517C11.3262 21.7793 9.9324 22.3565 8.47915 22.3564C7.0259 22.3563 5.6322 21.7789 4.60466 20.7513C3.57712 19.7236 2.99991 18.3298 3 16.8766C3.00009 15.4233 3.57748 14.0296 4.60515 13.0021L14.3165 3.14793C15.0501 2.41347 16.0455 2.00055 17.0837 2C18.1218 1.99945 19.1176 2.41132 19.8521 3.145C20.5865 3.87868 20.9995 4.87407 21 5.9122C21.0006 6.95033 20.5887 7.94616 19.855 8.68061L10.1417 18.5348C9.70063 18.9759 9.10235 19.2237 8.47852 19.2237C7.85469 19.2237 7.2564 18.9759 6.81529 18.5348C6.37417 18.0936 6.12636 17.4954 6.12636 16.8715C6.12636 16.2477 6.37417 15.6494 6.81529 15.2083L14.9651 6.92933C15.0365 6.85317 15.1224 6.79206 15.2178 6.7496C15.3131 6.70714 15.416 6.68419 15.5204 6.68208C15.6248 6.67998 15.7285 6.69878 15.8255 6.73737C15.9225 6.77596 16.0108 6.83356 16.0852 6.90679C16.1596 6.98001 16.2186 7.06738 16.2587 7.16374C16.2988 7.26011 16.3193 7.36353 16.3188 7.46792C16.3184 7.57231 16.2971 7.67555 16.2561 7.77158C16.2152 7.8676 16.1555 7.95447 16.0805 8.02706L7.92965 16.3148C7.85668 16.3872 7.79867 16.4733 7.75896 16.5681C7.71924 16.6629 7.69859 16.7646 7.69818 16.8674C7.69777 16.9702 7.71761 17.0721 7.75657 17.1672C7.79553 17.2624 7.85285 17.3489 7.92525 17.4219C7.99765 17.4948 8.08371 17.5528 8.17853 17.5926C8.27334 17.6323 8.37505 17.6529 8.47785 17.6533C8.58065 17.6537 8.68252 17.6339 8.77765 17.5949C8.87278 17.556 8.9593 17.4987 9.03228 17.4263L18.7446 7.57701C19.1857 7.1368 19.4338 6.53939 19.4345 5.9162C19.4351 5.29302 19.1882 4.69509 18.748 4.25398C18.3078 3.81286 17.7104 3.56469 17.0872 3.56404C16.464 3.5634 15.8661 3.81035 15.4249 4.25055L5.7156 14.1008C5.35187 14.4639 5.06323 14.8952 4.86616 15.3699C4.66909 15.8446 4.56745 16.3535 4.56704 16.8674C4.56663 17.3814 4.66746 17.8905 4.86378 18.3655C5.06009 18.8405 5.34805 19.2722 5.7112 19.6359C6.07435 19.9996 6.50559 20.2883 6.98029 20.4854C7.455 20.6824 7.96387 20.7841 8.47785 20.7845C8.99184 20.7849 9.50087 20.6841 9.97588 20.4877C10.4509 20.2914 10.8826 20.0035 11.2463 19.6403L19.2748 11.6177C19.4221 11.4715 19.6214 11.3898 19.8289 11.3906C20.0364 11.3913 20.2351 11.4744 20.3814 11.6216Z" fill="#DE296A"/>
</svg>