<svg xmlns="http://www.w3.org/2000/svg" width="15" height="15" viewBox="0 0 25 25" fill="none">
    <g clip-path="url(#clip0_0_4989)">
        <path d="M6.6275 12.7664L11.4275 16.7664L17.8275 8.76641M12.2275 23.9664C10.7567 23.9664 9.30029 23.6767 7.94144 23.1139C6.5826 22.551 5.34792 21.726 4.3079 20.686C3.26788 19.646 2.4429 18.4113 1.88005 17.0525C1.31719 15.6936 1.0275 14.2372 1.0275 12.7664C1.0275 11.2956 1.31719 9.8392 1.88005 8.48035C2.4429 7.12151 3.26788 5.88683 4.3079 4.84681C5.34792 3.80679 6.5826 2.98181 7.94144 2.41896C9.30029 1.8561 10.7567 1.56641 12.2275 1.56641C15.1979 1.56641 18.0467 2.7464 20.1471 4.84681C22.2475 6.94722 23.4275 9.79598 23.4275 12.7664C23.4275 15.7368 22.2475 18.5856 20.1471 20.686C18.0467 22.7864 15.1979 23.9664 12.2275 23.9664Z" stroke="#DE296A"/>
    </g>
    <defs>
        <clipPath id="clip0_0_4989">
            <rect width="24" height="24" fill="white" transform="translate(0.0943909 0.633301)"/>
        </clipPath>
    </defs>
</svg>