<svg xmlns="http://www.w3.org/2000/svg" width="20" height="20" viewBox="0 0 20 20" fill="none">
    <path d="M10 14.6665C11.1046 14.6665 12 15.5619 12 16.6665C12 17.7711 11.1046 18.6665 10 18.6665C8.89543 18.6665 8 17.7711 8 16.6665C8 15.5619 8.89543 14.6665 10 14.6665Z" stroke="#DE296A"/>
    <path d="M10 14.6665C11.1046 14.6665 12 15.5619 12 16.6665C12 17.7711 11.1046 18.6665 10 18.6665C8.89543 18.6665 8 17.7711 8 16.6665C8 15.5619 8.89543 14.6665 10 14.6665Z" stroke="#DE296A"/>
    <path d="M10 8C11.1046 8 12 8.89543 12 10C12 11.1046 11.1046 12 10 12C8.89543 12 8 11.1046 8 10C8 8.89543 8.89543 8 10 8Z" stroke="#DE296A"/>
    <path d="M10 1.3335C11.1046 1.3335 12 2.22893 12 3.3335C12 4.43807 11.1046 5.3335 10 5.3335C8.89543 5.3335 8 4.43807 8 3.3335C8 2.22893 8.89543 1.3335 10 1.3335Z" stroke="#DE296A"/>
</svg>