<svg width="20" height="20" viewBox="0 0 20 20" fill="none" xmlns="http://www.w3.org/2000/svg">
    <path d="M4.16668 18.3333V14.1667L3.33334 13.3333V10C3.33334 9.77899 3.42114 9.56702 3.57742 9.41074C3.7337 9.25446 3.94566 9.16667 4.16668 9.16667H7.50001C7.72102 9.16667 7.93299 9.25446 8.08927 9.41074C8.24555 9.56702 8.33334 9.77899 8.33334 10V13.3333L7.50001 14.1667V18.3333M12.5 18.3333V15H10.8333L12.5 10C12.5 9.77899 12.5878 9.56702 12.7441 9.41074C12.9004 9.25446 13.1123 9.16667 13.3333 9.16667H15C15.221 9.16667 15.433 9.25446 15.5893 9.41074C15.7455 9.56702 15.8333 9.77899 15.8333 10L17.5 15H15.8333V18.3333M4.16668 4.16667C4.16668 4.60869 4.34227 5.03262 4.65483 5.34518C4.96739 5.65774 5.39132 5.83333 5.83334 5.83333C6.27537 5.83333 6.69929 5.65774 7.01185 5.34518C7.32442 5.03262 7.50001 4.60869 7.50001 4.16667C7.50001 3.72464 7.32442 3.30072 7.01185 2.98816C6.69929 2.67559 6.27537 2.5 5.83334 2.5C5.39132 2.5 4.96739 2.67559 4.65483 2.98816C4.34227 3.30072 4.16668 3.72464 4.16668 4.16667ZM12.5 4.16667C12.5 4.60869 12.6756 5.03262 12.9882 5.34518C13.3007 5.65774 13.7246 5.83333 14.1667 5.83333C14.6087 5.83333 15.0326 5.65774 15.3452 5.34518C15.6577 5.03262 15.8333 4.60869 15.8333 4.16667C15.8333 3.72464 15.6577 3.30072 15.3452 2.98816C15.0326 2.67559 14.6087 2.5 14.1667 2.5C13.7246 2.5 13.3007 2.67559 12.9882 2.98816C12.6756 3.30072 12.5 3.72464 12.5 4.16667Z" stroke="#DE296A" stroke-width="1.66667" stroke-linecap="round" stroke-linejoin="round"/>
</svg>
