<svg xmlns="http://www.w3.org/2000/svg" width="49" height="48" viewBox="0 0 49 48" fill="none">
    <path d="M12.5 44C11.4 44 10.4587 43.6087 9.676 42.826C8.89333 42.0433 8.50133 41.1013 8.5 40V20C8.5 18.9 8.892 17.9587 9.676 17.176C10.46 16.3933 11.4013 16.0013 12.5 16H14.5V12C14.5 9.23333 15.4753 6.87533 17.426 4.926C19.3767 2.97667 21.7347 2.00133 24.5 2C27.2667 2 29.6253 2.97533 31.576 4.926C33.5267 6.87667 34.5013 9.23467 34.5 12V16H36.5C37.6 16 38.542 16.392 39.326 17.176C40.11 17.96 40.5013 18.9013 40.5 20V40C40.5 41.1 40.1087 42.042 39.326 42.826C38.5433 43.61 37.6013 44.0013 36.5 44H12.5ZM12.5 40H36.5V20H12.5V40ZM24.5 34C25.6 34 26.542 33.6087 27.326 32.826C28.11 32.0433 28.5013 31.1013 28.5 30C28.5 28.9 28.1087 27.9587 27.326 27.176C26.5433 26.3933 25.6013 26.0013 24.5 26C23.4 26 22.4587 26.392 21.676 27.176C20.8933 27.96 20.5013 28.9013 20.5 30C20.5 31.1 20.892 32.042 21.676 32.826C22.46 33.61 23.4013 34.0013 24.5 34ZM18.5 16H30.5V12C30.5 10.3333 29.9167 8.91667 28.75 7.75C27.5833 6.58333 26.1667 6 24.5 6C22.8333 6 21.4167 6.58333 20.25 7.75C19.0833 8.91667 18.5 10.3333 18.5 12V16Z" fill="#324667"/>
</svg>