<svg width="28" height="28" viewBox="0 0 28 28" fill="none" xmlns="http://www.w3.org/2000/svg">
<path d="M8.16667 12.8337V22.167C8.16667 22.4764 8.04375 22.7732 7.82496 22.992C7.60617 23.2108 7.30942 23.3337 7 23.3337H4.66667C4.35725 23.3337 4.0605 23.2108 3.84171 22.992C3.62292 22.7732 3.5 22.4764 3.5 22.167V14.0004C3.5 13.6909 3.62292 13.3942 3.84171 13.1754C4.0605 12.9566 4.35725 12.8337 4.66667 12.8337H8.16667ZM8.16667 12.8337C9.40434 12.8337 10.5913 12.342 11.4665 11.4669C12.3417 10.5917 12.8333 9.40466 12.8333 8.16699V7.00032C12.8333 6.38148 13.0792 5.78799 13.5168 5.3504C13.9543 4.91282 14.5478 4.66699 15.1667 4.66699C15.7855 4.66699 16.379 4.91282 16.8166 5.3504C17.2542 5.78799 17.5 6.38148 17.5 7.00032V12.8337H21C21.6188 12.8337 22.2123 13.0795 22.6499 13.5171C23.0875 13.9547 23.3333 14.5482 23.3333 15.167L22.1667 21.0004C21.9989 21.7161 21.6806 22.3306 21.2598 22.7515C20.8389 23.1723 20.3383 23.3767 19.8333 23.3337H11.6667C10.7384 23.3337 9.84817 22.9649 9.19179 22.3086C8.53542 21.6522 8.16667 20.762 8.16667 19.8337" stroke="#121212" stroke-width="1.5" stroke-linecap="round" stroke-linejoin="round"/>
</svg>
