<svg width="24" height="24" viewBox="0 0 24 24" fill="none" xmlns="http://www.w3.org/2000/svg">
<path d="M17 11H9.5V6.5C9.5 5.1215 10.6215 4 12 4C13.3785 4 14.5 5.1215 14.5 6.5C14.5 6.7765 14.7235 7 15 7H17C17.2765 7 17.5 6.7765 17.5 6.5C17.5 3.4675 15.0325 1 12 1C8.9675 1 6.5 3.4675 6.5 6.5V11.092C5.9195 11.299 5.5 11.849 5.5 12.5V21.5C5.5 22.327 6.173 23 7 23H17C17.827 23 18.5 22.327 18.5 21.5V12.5C18.5 11.673 17.827 11 17 11ZM7.5 6.5C7.6835 0.8325 15.6785 0.4205 16.472 6H15.464C14.759 1.759 8.6055 2.1705 8.5 6.5V11H7.5V6.5ZM17.5 21.5C17.5 21.776 17.276 22 17 22H7C6.724 22 6.5 21.776 6.5 21.5V12.5C6.5 12.224 6.724 12 7 12H17C17.276 12 17.5 12.224 17.5 12.5V21.5Z" fill="#66FF66"/>
<path d="M12 14.0007C10.338 14.0017 9.00101 15.3627 9.00001 17.0007C8.99201 19.8847 12.742 21.0827 14.4095 18.7807C15.8835 16.8912 14.416 13.9487 12 14.0007ZM12 19.0007C10.6065 19.0312 9.59501 17.5097 10.152 16.2397L13.241 18.5567C12.899 18.8302 12.4715 19.0007 12 19.0007ZM13.848 17.7617L10.759 15.4447C12.328 14.1497 14.6415 15.8862 13.848 17.7617Z" fill="#66FF66"/>
</svg>
