<svg width="24" height="24" viewBox="0 0 24 24" fill="none" xmlns="http://www.w3.org/2000/svg">
<g clip-path="url(#clip0_107_13827)">
<path d="M17.625 18.3281H14.8125C14.4241 18.3281 14.1094 18.6429 14.1094 19.0312C14.1094 19.4196 14.4241 19.7344 14.8125 19.7344H17.625C18.0134 19.7344 18.3281 19.4196 18.3281 19.0312C18.3281 18.6429 18.0134 18.3281 17.625 18.3281Z" fill="#FFB266"/>
<path d="M16.2188 14.1094C15.9919 14.1094 15.7687 14.1251 15.55 14.155C14.2255 12.3569 12.1439 11.2969 9.89062 11.2969C6.01355 11.2969 2.85938 14.451 2.85938 18.3281V21.8438C2.85938 22.2321 3.17413 22.5469 3.5625 22.5469H12.744C13.6349 23.4443 14.8638 24 16.2188 24C18.9327 24 21.1406 21.7711 21.1406 19.0312C21.1406 16.3173 18.9327 14.1094 16.2188 14.1094ZM4.26562 18.3281C4.26562 15.2265 6.789 12.7031 9.89062 12.7031C11.5197 12.7031 13.0369 13.3956 14.0962 14.5909C12.4418 15.3851 11.2969 17.077 11.2969 19.0312C11.2969 19.7851 11.4642 20.4999 11.7631 21.1406H4.26562V18.3281ZM16.2188 22.5938C14.2524 22.5938 12.7031 20.9594 12.7031 19.0312C12.7031 17.0927 14.2802 15.5156 16.2188 15.5156C18.1573 15.5156 19.7344 17.0927 19.7344 19.0312C19.7344 20.9956 18.1573 22.5938 16.2188 22.5938Z" fill="#FFB266"/>
<path d="M15.5156 5.67188C15.5156 2.54443 12.9922 0 9.89062 0C6.789 0 4.26562 2.54443 4.26562 5.67188C4.26562 8.7735 6.789 11.2969 9.89062 11.2969C12.9922 11.2969 15.5156 8.7735 15.5156 5.67188ZM9.89062 9.89062C7.56445 9.89062 5.67188 7.99805 5.67188 5.67188C5.67188 3.3197 7.56445 1.40625 9.89062 1.40625C12.2168 1.40625 14.1094 3.3197 14.1094 5.67188C14.1094 7.99805 12.2168 9.89062 9.89062 9.89062Z" fill="#FFB266"/>
<path d="M12 4.96875C11.6116 4.96875 11.2969 5.28351 11.2969 5.67188C11.2969 6.44733 10.6661 7.07812 9.89062 7.07812C9.11517 7.07812 8.48438 6.44733 8.48438 5.67188C8.48438 5.28351 8.16962 4.96875 7.78125 4.96875C7.39288 4.96875 7.07812 5.28351 7.07812 5.67188C7.07812 7.22278 8.33972 8.48438 9.89062 8.48438C11.4415 8.48438 12.7031 7.22278 12.7031 5.67188C12.7031 5.28351 12.3884 4.96875 12 4.96875Z" fill="#FFB266"/>
</g>
<defs>
<clipPath id="clip0_107_13827">
<rect width="24" height="24" fill="white"/>
</clipPath>
</defs>
</svg>
