<svg xmlns="http://www.w3.org/2000/svg" width="97" height="96" viewBox="0 0 97 96" fill="none">
    <path fill-rule="evenodd" clip-rule="evenodd" d="M48.5001 84.5714C58.1995 84.5714 67.5016 80.7184 74.36 73.8599C81.2185 67.0014 85.0716 57.6993 85.0716 48C85.0716 38.3007 81.2185 28.9986 74.36 22.1401C67.5016 15.2816 58.1995 11.4286 48.5001 11.4286C38.8008 11.4286 29.4987 15.2816 22.6402 22.1401C15.7818 28.9986 11.9287 38.3007 11.9287 48C11.9287 57.6993 15.7818 67.0014 22.6402 73.8599C29.4987 80.7184 38.8008 84.5714 48.5001 84.5714Z" stroke="#324667" stroke-width="4" stroke-linecap="round" stroke-linejoin="round"/>
    <path d="M37.0714 41.1429C39.5962 41.1429 41.6429 39.0962 41.6429 36.5714C41.6429 34.0467 39.5962 32 37.0714 32C34.5467 32 32.5 34.0467 32.5 36.5714C32.5 39.0962 34.5467 41.1429 37.0714 41.1429Z" fill="#324667"/>
    <path d="M59.9289 41.1429C62.4536 41.1429 64.5003 39.0962 64.5003 36.5714C64.5003 34.0467 62.4536 32 59.9289 32C57.4041 32 55.3574 34.0467 55.3574 36.5714C55.3574 39.0962 57.4041 41.1429 59.9289 41.1429Z" fill="#324667"/>
    <path d="M34.7856 61.7143C37.5422 55.6206 42.1136 52.5714 48.4999 52.5714C54.8862 52.5714 59.4576 55.6206 62.2142 61.7143" stroke="#324667" stroke-width="4" stroke-linecap="round" stroke-linejoin="round"/>
</svg>