<svg xmlns="http://www.w3.org/2000/svg" width="19" height="20" viewBox="0 0 19 20" fill="none">
    <path d="M9.27069 0.570557C14.3907 0.570557 18.5414 4.72118 18.5414 9.84124C18.5414 14.9613 14.3907 19.1119 9.27069 19.1119C4.15062 19.1119 0 14.9613 0 9.84124C0 4.72118 4.15062 0.570557 9.27069 0.570557ZM9.27068 17.4996C9.27068 17.4996 9.27069 17.4996 9.2707 17.4996C13.5003 17.4996 16.9291 14.0709 16.9291 9.84124C16.9291 5.61162 13.5003 2.18284 9.27069 2.18284C5.04108 2.18284 1.61228 5.61162 1.61228 9.84124C1.61732 14.0688 5.04309 17.4946 9.2702 17.4996H9.27066C9.27066 17.4996 9.27067 17.4996 9.27068 17.4996ZM13.8899 9.84125C13.8899 10.2865 13.529 10.6474 13.0838 10.6474H5.4576C5.01238 10.6474 4.65146 10.2865 4.65146 9.84125C4.65146 9.39603 5.01238 9.03511 5.4576 9.03511H13.0838C13.529 9.03511 13.8899 9.39603 13.8899 9.84125ZM10.0768 13.6543C10.0768 14.0996 9.71592 14.4605 9.27071 14.4605C8.82549 14.4605 8.46457 14.0996 8.46457 13.6543V6.02815C8.46457 5.58293 8.82549 5.22201 9.27071 5.22201C9.71592 5.22201 10.0768 5.58293 10.0768 6.02815V13.6543Z" fill="#DE296A"/>
</svg>