<svg xmlns="http://www.w3.org/2000/svg" width="40" height="40" viewBox="0 0 40 40" fill="none">
    <path d="M19.9999 3.33325C10.8166 3.33325 3.33325 10.8166 3.33325 19.9999C3.33325 29.1833 10.8166 36.6666 19.9999 36.6666C29.1833 36.6666 36.6666 29.1833 36.6666 19.9999C36.6666 10.8166 29.1833 3.33325 19.9999 3.33325ZM26.6666 21.2499H21.2499V26.6666C21.2499 27.3499 20.6833 27.9166 19.9999 27.9166C19.3166 27.9166 18.7499 27.3499 18.7499 26.6666V21.2499H13.3333C12.6499 21.2499 12.0833 20.6833 12.0833 19.9999C12.0833 19.3166 12.6499 18.7499 13.3333 18.7499H18.7499V13.3333C18.7499 12.6499 19.3166 12.0833 19.9999 12.0833C20.6833 12.0833 21.2499 12.6499 21.2499 13.3333V18.7499H26.6666C27.3499 18.7499 27.9166 19.3166 27.9166 19.9999C27.9166 20.6833 27.3499 21.2499 26.6666 21.2499Z" fill="#DE296A"/>
</svg>