<svg width="91" height="90" viewBox="0 0 91 90" fill="none" xmlns="http://www.w3.org/2000/svg">
    <path d="M42.1437 9.06214L13.2231 20.9772V50.3453C13.2231 66.0829 45.5001 81.1119 45.5001 81.1119C45.5001 81.1119 77.777 66.0829 77.777 50.3453V20.9772L48.8564 9.06214C47.7929 8.61901 46.6522 8.39087 45.5001 8.39087C44.3479 8.39087 43.2072 8.61901 42.1437 9.06214Z" stroke="#324667" stroke-width="4" stroke-linecap="round" stroke-linejoin="round"/>
    <path d="M59.7646 35.9131H31.2543C30.173 35.9131 29.2964 36.7897 29.2964 37.871V58.9414C29.2964 60.0227 30.173 60.8993 31.2543 60.8993H59.7646C60.8459 60.8993 61.7225 60.0227 61.7225 58.9414V37.871C61.7225 36.7897 60.8459 35.9131 59.7646 35.9131Z" stroke="#324667" stroke-width="4" stroke-linecap="round" stroke-linejoin="round"/>
    <path d="M34.7783 35.913V31.4192C34.7783 28.5756 35.9079 25.8485 37.9186 23.8378C39.9293 21.8271 42.6564 20.6975 45.5 20.6975C48.3436 20.6975 51.0707 21.8271 53.0814 23.8378C55.0921 25.8485 56.2217 28.5756 56.2217 31.4192V35.913" stroke="#324667" stroke-width="4" stroke-linecap="round" stroke-linejoin="round"/>
    <path d="M45.4999 52.5646C47.7964 52.5646 49.6581 50.7029 49.6581 48.4064C49.6581 46.11 47.7964 44.2483 45.4999 44.2483C43.2035 44.2483 41.3418 46.11 41.3418 48.4064C41.3418 50.7029 43.2035 52.5646 45.4999 52.5646Z" stroke="#324667" stroke-width="4" stroke-linecap="round" stroke-linejoin="round"/>
</svg>
