<svg xmlns="http://www.w3.org/2000/svg" width="25" height="25" viewBox="0 0 25 25" fill="none">
    <path d="M10.4276 5.56641H14.0276C14.0276 5.08902 13.838 4.63118 13.5004 4.29361C13.1628 3.95605 12.705 3.76641 12.2276 3.76641C11.7502 3.76641 11.2924 3.95605 10.9548 4.29361C10.6172 4.63118 10.4276 5.08902 10.4276 5.56641ZM9.22759 5.56641C9.22759 4.77076 9.54366 4.00769 10.1063 3.44509C10.6689 2.88248 11.4319 2.56641 12.2276 2.56641C13.0232 2.56641 13.7863 2.88248 14.3489 3.44509C14.9115 4.00769 15.2276 4.77076 15.2276 5.56641H21.2276C21.3867 5.56641 21.5393 5.62962 21.6519 5.74214C21.7644 5.85466 21.8276 6.00728 21.8276 6.16641C21.8276 6.32554 21.7644 6.47815 21.6519 6.59067C21.5393 6.70319 21.3867 6.76641 21.2276 6.76641H19.9628L18.53 19.1792C18.4287 20.0566 18.0084 20.8662 17.349 21.4539C16.6897 22.0416 15.8372 22.3663 14.954 22.3664H9.50119C8.61794 22.3663 7.76553 22.0416 7.10616 21.4539C6.44679 20.8662 6.02647 20.0566 5.92519 19.1792L4.49239 6.76641H3.22759C3.06846 6.76641 2.91585 6.70319 2.80333 6.59067C2.69081 6.47815 2.62759 6.32554 2.62759 6.16641C2.62759 6.00728 2.69081 5.85466 2.80333 5.74214C2.91585 5.62962 3.06846 5.56641 3.22759 5.56641H9.22759ZM7.11679 19.0424C7.1845 19.6273 7.46485 20.1669 7.9045 20.5585C8.34414 20.9501 8.91241 21.1665 9.50119 21.1664H14.954C15.5428 21.1665 16.111 20.9501 16.5507 20.5585C16.9903 20.1669 17.2707 19.6273 17.3384 19.0424L18.7544 6.76641H5.70079L7.11679 19.0424ZM10.4276 9.76641C10.5867 9.76641 10.7393 9.82962 10.8519 9.94214C10.9644 10.0547 11.0276 10.2073 11.0276 10.3664V17.5664C11.0276 17.7255 10.9644 17.8781 10.8519 17.9907C10.7393 18.1032 10.5867 18.1664 10.4276 18.1664C10.2685 18.1664 10.1159 18.1032 10.0033 17.9907C9.89081 17.8781 9.82759 17.7255 9.82759 17.5664V10.3664C9.82759 10.2073 9.89081 10.0547 10.0033 9.94214C10.1159 9.82962 10.2685 9.76641 10.4276 9.76641ZM14.6276 10.3664C14.6276 10.2073 14.5644 10.0547 14.4519 9.94214C14.3393 9.82962 14.1867 9.76641 14.0276 9.76641C13.8685 9.76641 13.7159 9.82962 13.6033 9.94214C13.4908 10.0547 13.4276 10.2073 13.4276 10.3664V17.5664C13.4276 17.7255 13.4908 17.8781 13.6033 17.9907C13.7159 18.1032 13.8685 18.1664 14.0276 18.1664C14.1867 18.1664 14.3393 18.1032 14.4519 17.9907C14.5644 17.8781 14.6276 17.7255 14.6276 17.5664V10.3664Z" fill="#324667"/>
</svg>