<svg width="25" height="25" viewBox="0 0 25 25" fill="none" xmlns="http://www.w3.org/2000/svg">
    <g clip-path="url(#clip0_0_4417)">
        <path d="M24.266 12.3295C24.266 11.5137 24.1999 10.6936 24.0588 9.89111H12.74V14.5121H19.2217C18.9528 16.0024 18.0885 17.3208 16.823 18.1586V21.157H20.69C22.9608 19.0669 24.266 15.9804 24.266 12.3295Z" fill="#4285F4"/>
        <path d="M12.7401 24.054C15.9766 24.054 18.7059 22.9914 20.6945 21.1571L16.8276 18.1588C15.7517 18.8907 14.3627 19.3052 12.7445 19.3052C9.61388 19.3052 6.95946 17.1931 6.00705 14.3535H2.0166V17.4445C4.05371 21.4966 8.2029 24.054 12.7401 24.054V24.054Z" fill="#34A853"/>
        <path d="M6.00253 14.3534C5.49987 12.8631 5.49987 11.2493 6.00253 9.75891V6.66797H2.01649C0.31449 10.0587 0.31449 14.0536 2.01649 17.4444L6.00253 14.3534V14.3534Z" fill="#FBBC04"/>
        <path d="M12.7401 4.80288C14.4509 4.77643 16.1044 5.42019 17.3434 6.60189L20.7695 3.17584C18.6001 1.13873 15.7208 0.0187567 12.7401 0.0540313C8.2029 0.0540313 4.05371 2.61144 2.0166 6.66803L6.00264 9.75897C6.95065 6.91495 9.60947 4.80288 12.7401 4.80288V4.80288Z" fill="#EA4335"/>
    </g>
    <defs>
        <clipPath id="clip0_0_4417">
            <rect width="24" height="24" fill="white" transform="translate(0.5 0.0532227)"/>
        </clipPath>
    </defs>
</svg>
