<svg width="104" height="104" viewBox="0 0 104 104" fill="none" xmlns="http://www.w3.org/2000/svg">
    <path d="M38.9999 26C38.9999 29.4478 40.3695 32.7544 42.8075 35.1924C45.2455 37.6304 48.5521 39 51.9999 39C55.4477 39 58.7543 37.6304 61.1923 35.1924C63.6302 32.7544 64.9999 29.4478 64.9999 26C64.9999 22.5522 63.6302 19.2456 61.1923 16.8076C58.7543 14.3696 55.4477 13 51.9999 13C48.5521 13 45.2455 14.3696 42.8075 16.8076C40.3695 19.2456 38.9999 22.5522 38.9999 26ZM19.2312 60.242C17.72 61.0783 16.3907 62.2073 15.3207 63.5631C14.2508 64.919 13.4618 66.4744 12.9997 68.1386C12.5377 69.8028 12.4119 71.5423 12.6297 73.2557C12.8474 74.969 13.4045 76.6218 14.2682 78.1175C15.1319 79.6131 16.285 80.9217 17.6601 81.9667C19.0352 83.0117 20.6048 83.7723 22.2771 84.2039C23.9494 84.6355 25.691 84.7296 27.4001 84.4806C29.1092 84.2316 30.7515 83.6445 32.2312 82.7537C35.1927 81.0175 37.3472 78.1804 38.2247 74.8616C39.1021 71.5428 38.6312 68.0116 36.9148 65.0386C35.1983 62.0657 32.3756 59.8924 29.0626 58.9929C25.7497 58.0935 22.2155 58.5409 19.2312 60.2377V60.242ZM84.7685 60.242C86.2771 61.0789 87.6039 62.2079 88.6716 63.5629C89.7393 64.918 90.5266 66.4721 90.9874 68.1346C91.4482 69.7971 91.5734 71.5347 91.3557 73.2461C91.1379 74.9575 90.5816 76.6084 89.7192 78.1025C88.8568 79.5967 87.7055 80.9041 86.3325 81.9487C84.9595 82.9933 83.3922 83.754 81.7222 84.1865C80.0521 84.619 78.3126 84.7147 76.6052 84.468C74.8977 84.2212 73.2565 83.637 71.7772 82.7493C68.8545 80.9956 66.7379 78.1638 65.8833 74.8642C65.0288 71.5646 65.5047 68.0613 67.2086 65.1093C68.9125 62.1573 71.708 59.9929 74.9926 59.0825C78.2772 58.172 81.788 58.5884 84.7685 60.242Z" stroke="#DE296A" stroke-width="4.33333"/>
    <path fill-rule="evenodd" clip-rule="evenodd" d="M39.0129 26.5419C38.9413 24.8573 39.1989 23.1749 39.7712 21.5889C34.8915 23.3087 30.4285 26.0364 26.6724 29.5946C22.9163 33.1529 19.9513 37.4619 17.9702 42.2415C15.2363 48.8413 14.4805 56.0936 15.7949 63.1152C16.8823 61.8273 18.2099 60.7633 19.7035 59.9822C18.9222 53.076 20.3761 46.1012 23.8515 40.0823C27.327 34.0634 32.6409 29.3176 39.0129 26.5419ZM64.9869 26.5419C71.3584 29.3181 76.6719 34.0641 80.1473 40.0829C83.6227 46.1016 85.0768 53.0761 84.2962 59.9822C85.79 60.7631 87.1176 61.8272 88.2049 63.1152C89.8241 54.4709 88.297 45.5325 83.8995 37.9162C79.502 30.2999 72.5245 24.5084 64.2285 21.5889C64.8001 23.1751 65.0577 24.8573 64.9869 26.5419ZM75.9762 84.2965C74.3158 83.9985 72.7293 83.3803 71.3049 82.4765C65.7145 86.6035 58.9486 88.8304 51.9999 88.8304C45.0511 88.8304 38.2853 86.6035 32.6949 82.4765L32.2312 82.7582C30.9283 83.5106 29.5046 84.0311 28.0235 84.2965C34.7001 90.0216 43.2048 93.1686 51.9999 93.1686C60.7949 93.1686 69.2997 90.0216 75.9762 84.2965Z" fill="#DE296A"/>
</svg>
