<svg width="104" height="104" viewBox="0 0 104 104" fill="none" xmlns="http://www.w3.org/2000/svg">
    <g clip-path="url(#clip0_1_1548)">
        <path d="M66.2026 26H42.2176V32.5H66.2026V26Z" fill="#DE296A"/>
        <path d="M81.25 26H70.8825V32.5H81.25V26Z" fill="#DE296A"/>
        <path d="M81.25 52H57.265V58.5H81.25V52Z" fill="#DE296A"/>
        <path d="M52.6175 52H42.25V58.5H52.6175V52ZM81.25 39H52V45.5H81.25V39Z" fill="#DE296A"/>
        <path d="M61.75 0C85.085 0 104 18.915 104 42.25C104 65.585 85.085 84.5 61.75 84.5C38.415 84.5 19.5 65.585 19.5 42.25C19.5 31.0446 23.9513 20.2982 31.8747 12.3747C39.7981 4.45133 50.5446 0 61.75 0ZM61.75 78C81.4937 78 97.5 61.9937 97.5 42.25C97.5 22.5063 81.4937 6.5 61.75 6.5C42.0062 6.5 26 22.5063 26 42.25C26 61.9937 42.0062 78 61.75 78ZM30.6117 77.9773L26.0162 73.3818L0.965245 98.4328L5.56074 103.028L30.6117 77.9773Z" fill="#DE296A"/>
    </g>
    <defs>
        <clipPath id="clip0_1_1548">
            <rect width="104" height="104" fill="white" transform="matrix(-1 0 0 1 104 0)"/>
        </clipPath>
    </defs>
</svg>
