<svg xmlns="http://www.w3.org/2000/svg" width="25" height="24" viewBox="0 0 25 24" fill="none">
    <path d="M12.753 21C11.509 21 10.339 20.764 9.243 20.292C8.14767 19.8193 7.19467 19.178 6.384 18.368C5.57333 17.5587 4.93167 16.6067 4.459 15.512C3.98633 14.4173 3.75 13.2477 3.75 12.003C3.75 10.759 3.986 9.589 4.458 8.493C4.93067 7.39767 5.572 6.44467 6.382 5.634C7.19133 4.82333 8.14333 4.18167 9.238 3.709C10.3327 3.23633 11.5023 3 12.747 3C13.991 3 15.161 3.236 16.257 3.708C17.3523 4.18067 18.3053 4.822 19.116 5.632C19.9267 6.44133 20.5683 7.39333 21.041 8.488C21.5137 9.58267 21.75 10.7523 21.75 11.997C21.75 13.241 21.514 14.411 21.042 15.507C20.5693 16.6023 19.928 17.5553 19.118 18.366C18.3087 19.1767 17.3567 19.8183 16.262 20.291C15.1673 20.7637 13.9977 21 12.753 21ZM11.75 19.95V18C11.2 18 10.7293 17.8043 10.338 17.413C9.94667 17.0217 9.75067 16.5507 9.75 16V15L4.95 10.2C4.9 10.5 4.85433 10.8 4.813 11.1C4.77167 11.4 4.75067 11.7 4.75 12C4.75 14.0167 5.41267 15.7833 6.738 17.3C8.06333 18.8167 9.734 19.7 11.75 19.95ZM18.65 17.4C18.9833 17.0333 19.2833 16.6377 19.55 16.213C19.8167 15.7883 20.0373 15.3467 20.212 14.888C20.3873 14.4293 20.5207 13.9583 20.612 13.475C20.7033 12.9917 20.7493 12.5 20.75 12C20.75 10.3573 20.299 8.857 19.397 7.499C18.495 6.141 17.2793 5.162 15.75 4.562V5C15.75 5.55 15.5543 6.021 15.163 6.413C14.7717 6.805 14.3007 7.00067 13.75 7H11.75V9C11.75 9.28333 11.654 9.521 11.462 9.713C11.27 9.905 11.0327 10.0007 10.75 10H8.75V12H14.75C15.0333 12 15.271 12.096 15.463 12.288C15.655 12.48 15.7507 12.7173 15.75 13V16H16.75C17.1833 16 17.575 16.1293 17.925 16.388C18.275 16.6467 18.5167 16.984 18.65 17.4Z" fill="#DE296A"/>
</svg>