<svg xmlns="http://www.w3.org/2000/svg" width="29" height="28" viewBox="0 0 29 28" fill="none">
    <path fill-rule="evenodd" clip-rule="evenodd" d="M6.1665 8.16675C6.1665 6.64796 7.39772 5.41675 8.9165 5.41675H20.5832C22.102 5.41675 23.3332 6.64796 23.3332 8.16675V15.6894L22.2802 14.6364L22.2699 14.6263C21.6281 14.0088 20.8461 13.6352 19.9998 13.6352C19.1536 13.6352 18.3716 14.0088 17.7298 14.6263L17.7195 14.6364L17.0832 15.2728L14.1135 12.3031L14.1032 12.293C13.4614 11.6754 12.6794 11.3019 11.8332 11.3019C10.9869 11.3019 10.2049 11.6754 9.56314 12.293L9.55284 12.3031L6.1665 15.6894V8.16675ZM18.1438 16.3334L18.7748 15.7025C19.1955 15.2995 19.6188 15.1352 19.9998 15.1352C20.3808 15.1352 20.8042 15.2995 21.2249 15.7025L23.3332 17.8108V19.8334C23.3332 21.3522 22.102 22.5834 20.5832 22.5834H8.9165C7.39772 22.5834 6.1665 21.3522 6.1665 19.8334V17.8108L10.6081 13.3691C11.0288 12.9662 11.4522 12.8019 11.8332 12.8019C12.2142 12.8019 12.6375 12.9662 13.0582 13.3692L16.5528 16.8638L18.8862 19.1971C19.1791 19.49 19.6539 19.49 19.9468 19.1971C20.2397 18.9042 20.2397 18.4293 19.9468 18.1364L18.1438 16.3334ZM24.8332 17.5001V8.16675C24.8332 5.81954 22.9304 3.91675 20.5832 3.91675H8.9165C6.56929 3.91675 4.6665 5.81954 4.6665 8.16675V17.5001V19.8334C4.6665 22.1806 6.56929 24.0834 8.9165 24.0834H20.5832C22.9304 24.0834 24.8332 22.1806 24.8332 19.8334V17.5001ZM18.2498 8.58342C17.8356 8.58342 17.4998 8.9192 17.4998 9.33342C17.4998 9.74763 17.8356 10.0834 18.2498 10.0834H18.2615C18.6757 10.0834 19.0115 9.74763 19.0115 9.33342C19.0115 8.9192 18.6757 8.58342 18.2615 8.58342H18.2498Z" fill="#DE296A"/>
</svg>