<svg width="104" height="104" viewBox="0 0 104 104" fill="none" xmlns="http://www.w3.org/2000/svg">
    <path d="M30.5709 34.2473C27.8833 36.0238 24.6318 36.739 21.4469 36.2544C18.2619 35.7698 15.3703 34.1199 13.3327 31.6244C11.2951 29.129 10.2567 25.9659 10.4188 22.7483C10.5809 19.5308 11.9319 16.488 14.21 14.21C16.488 11.9319 19.5308 10.5809 22.7483 10.4188C25.9659 10.2567 29.129 11.2951 31.6244 13.3327C34.1199 15.3703 35.7698 18.2619 36.2544 21.4469C36.739 24.6318 36.0238 27.8833 34.2473 30.5709L44.8241 41.1529C46.9502 39.7448 49.4448 38.9959 51.9949 39.0001C54.6469 39.0001 57.1065 39.7905 59.1657 41.1529L69.7477 30.5709C67.9712 27.8833 67.2559 24.6318 67.7405 21.4469C68.2251 18.2619 69.8751 15.3703 72.3705 13.3327C74.866 11.2951 78.0291 10.2567 81.2466 10.4188C84.4642 10.5809 87.507 11.9319 89.785 14.21C92.063 16.488 93.4141 19.5308 93.5761 22.7483C93.7382 25.9659 92.6998 29.129 90.6622 31.6244C88.6246 34.1199 85.7331 35.7698 82.5481 36.2544C79.3631 36.739 76.1116 36.0238 73.4241 34.2473L62.8473 44.8241C64.2097 46.8833 65.0001 49.3481 65.0001 51.9949C65.0001 54.6469 64.2097 57.1065 62.8473 59.1657L73.4293 69.7477C76.1168 67.9712 79.3683 67.2559 82.5533 67.7405C85.7383 68.2251 88.6299 69.8751 90.6674 72.3705C92.705 74.866 93.7434 78.0291 93.5813 81.2466C93.4193 84.4642 92.0682 87.5069 89.7902 89.785C87.5121 92.063 84.4694 93.414 81.2518 93.5761C78.0343 93.7382 74.8712 92.6998 72.3757 90.6622C69.8803 88.6246 68.2303 85.7331 67.7457 82.5481C67.2611 79.3631 67.9764 76.1116 69.7529 73.4241L59.1709 62.8421C57.0448 64.2502 54.5502 64.9991 52.0001 64.9949C49.3481 64.9949 46.8885 64.2045 44.8293 62.8421L34.2473 73.4241C36.0238 76.1116 36.739 79.3631 36.2544 82.5481C35.7698 85.7331 34.1199 88.6246 31.6244 90.6622C29.129 92.6998 25.9659 93.7382 22.7483 93.5761C19.5308 93.414 16.488 92.063 14.21 89.785C11.9319 87.5069 10.5809 84.4642 10.4188 81.2466C10.2567 78.0291 11.2951 74.866 13.3327 72.3705C15.3703 69.8751 18.2619 68.2251 21.4469 67.7405C24.6318 67.2559 27.8833 67.9712 30.5709 69.7477L41.1529 59.1657C39.7452 57.0413 38.9963 54.5485 39.0001 52.0001C39.0001 49.3481 39.7905 46.8885 41.1529 44.8293L30.5709 34.2473ZM31.2001 23.4001C31.2001 21.3314 30.3783 19.3474 28.9155 17.8846C27.4527 16.4219 25.4688 15.6001 23.4001 15.6001C21.3314 15.6001 19.3474 16.4219 17.8846 17.8846C16.4219 19.3474 15.6001 21.3314 15.6001 23.4001C15.6001 25.4688 16.4219 27.4527 17.8846 28.9155C19.3474 30.3783 21.3314 31.2001 23.4001 31.2001C25.4688 31.2001 27.4527 30.3783 28.9155 28.9155C30.3783 27.4527 31.2001 25.4688 31.2001 23.4001ZM88.4001 23.4001C88.4001 21.3314 87.5783 19.3474 86.1155 17.8846C84.6527 16.4219 82.6688 15.6001 80.6001 15.6001C78.5314 15.6001 76.5474 16.4219 75.0846 17.8846C73.6219 19.3474 72.8001 21.3314 72.8001 23.4001C72.8001 25.4688 73.6219 27.4527 75.0846 28.9155C76.5474 30.3783 78.5314 31.2001 80.6001 31.2001C82.6688 31.2001 84.6527 30.3783 86.1155 28.9155C87.5783 27.4527 88.4001 25.4688 88.4001 23.4001ZM23.4001 88.4001C25.4688 88.4001 27.4527 87.5783 28.9155 86.1155C30.3783 84.6527 31.2001 82.6688 31.2001 80.6001C31.2001 78.5314 30.3783 76.5474 28.9155 75.0846C27.4527 73.6219 25.4688 72.8001 23.4001 72.8001C21.3314 72.8001 19.3474 73.6219 17.8846 75.0846C16.4219 76.5474 15.6001 78.5314 15.6001 80.6001C15.6001 82.6688 16.4219 84.6527 17.8846 86.1155C19.3474 87.5783 21.3314 88.4001 23.4001 88.4001ZM88.4001 80.6001C88.4001 78.5314 87.5783 76.5474 86.1155 75.0846C84.6527 73.6219 82.6688 72.8001 80.6001 72.8001C78.5314 72.8001 76.5474 73.6219 75.0846 75.0846C73.6219 76.5474 72.8001 78.5314 72.8001 80.6001C72.8001 82.6688 73.6219 84.6527 75.0846 86.1155C76.5474 87.5783 78.5314 88.4001 80.6001 88.4001C82.6688 88.4001 84.6527 87.5783 86.1155 86.1155C87.5783 84.6527 88.4001 82.6688 88.4001 80.6001ZM59.8001 52.0001C59.8001 49.9314 58.9783 47.9474 57.5155 46.4846C56.0527 45.0219 54.0688 44.2001 52.0001 44.2001C49.9314 44.2001 47.9474 45.0219 46.4846 46.4846C45.0219 47.9474 44.2001 49.9314 44.2001 52.0001C44.2001 54.0688 45.0219 56.0527 46.4846 57.5155C47.9474 58.9783 49.9314 59.8001 52.0001 59.8001C54.0688 59.8001 56.0527 58.9783 57.5155 57.5155C58.9783 56.0527 59.8001 54.0688 59.8001 52.0001Z" fill="#DE296A"/>
</svg>
