<svg xmlns="http://www.w3.org/2000/svg" width="29" height="28" viewBox="0 0 29 28" fill="none">
    <path fill-rule="evenodd" clip-rule="evenodd" d="M5.43945 10.3788C5.43945 8.21571 7.193 6.46216 9.35612 6.46216H21.0228C23.1859 6.46216 24.9395 8.21571 24.9395 10.3788V17.3788C24.9395 19.5419 23.1859 21.2955 21.0228 21.2955H9.35612C7.193 21.2955 5.43945 19.5419 5.43945 17.3788V10.3788ZM9.35612 4.96216C6.36458 4.96216 3.93945 7.38728 3.93945 10.3788V17.3788C3.93945 20.3704 6.36458 22.7955 9.35612 22.7955H21.0228C24.0143 22.7955 26.4395 20.3704 26.4395 17.3788V10.3788C26.4395 7.38728 24.0143 4.96216 21.0228 4.96216H9.35612ZM13.242 9.7357C13.0103 9.59669 12.7217 9.59305 12.4866 9.72617C12.2515 9.8593 12.1061 10.1086 12.1061 10.3788V17.3788C12.1061 17.649 12.2515 17.8983 12.4866 18.0315C12.7217 18.1646 13.0103 18.161 13.242 18.0219L19.0753 14.5219C19.3012 14.3864 19.4395 14.1423 19.4395 13.8788C19.4395 13.6154 19.3012 13.3712 19.0753 13.2357L13.242 9.7357ZM17.2317 13.8788L13.6061 16.0542V11.7035L17.2317 13.8788Z" fill="#DE296A"/>
</svg>