<svg width="60" height="60" viewBox="0 0 60 60" fill="none" xmlns="http://www.w3.org/2000/svg">
<circle cx="30" cy="30" r="30" fill="#DE296A" fill-opacity="0.05"/>
<path d="M20.7583 27.2031C17.4561 27.9884 15 30.9573 15 34.4999C15 38.642 18.3579 41.9999 22.5 41.9999C23.2106 41.9999 23.898 41.9011 24.5494 41.7165" stroke="#DE296A" stroke-width="2" stroke-linecap="round" stroke-linejoin="round"/>
<path d="M39.0411 27.2031C42.3433 27.9884 44.7994 30.9573 44.7994 34.4999C44.7994 38.642 41.4415 41.9999 37.2994 41.9999C36.5888 41.9999 35.9014 41.9011 35.25 41.7165" stroke="#DE296A" stroke-width="2" stroke-linecap="round" stroke-linejoin="round"/>
<path d="M39 27C39 22.0295 34.9705 18 30 18C25.0295 18 21 22.0295 21 27" stroke="#DE296A" stroke-width="2" stroke-linecap="round" stroke-linejoin="round"/>
<path d="M24.7988 32.9109L29.9997 27.6929L35.3486 33.0002" stroke="#DE296A" stroke-width="2" stroke-linecap="round" stroke-linejoin="round"/>
<path d="M30 40.5003V30.3467" stroke="#DE296A" stroke-width="2" stroke-linecap="round" stroke-linejoin="round"/>
</svg>
